<svg width="40" height="40" viewBox="0 0 40 40" fill="none" xmlns="http://www.w3.org/2000/svg">
<path d="M30.0119 0C31.3819 0 32.6722 0.262843 33.8829 0.78853C35.0936 1.31422 36.1529 2.03106 37.0609 2.93907C37.9689 3.84707 38.6858 4.90641 39.2115 6.11708C39.7372 7.32776 40 8.61808 40 9.98805V29.9642C40 31.3341 39.7372 32.6324 39.2115 33.859C38.6858 35.0856 37.9689 36.1529 37.0609 37.0609C36.1529 37.9689 35.0936 38.6858 33.8829 39.2115C32.6722 39.7372 31.3819 40 30.0119 40H9.98805C8.61808 40 7.32776 39.7372 6.11708 39.2115C4.90641 38.6858 3.84707 37.9689 2.93907 37.0609C2.03106 36.1529 1.31422 35.0856 0.78853 33.859C0.262843 32.6324 0 31.3341 0 29.9642V9.98805C0 8.61808 0.262843 7.32776 0.78853 6.11708C1.31422 4.90641 2.03106 3.84707 2.93907 2.93907C3.84707 2.03106 4.90641 1.31422 6.11708 0.78853C7.32776 0.262843 8.61808 0 9.98805 0H30.0119ZM27.4791 8.74552H23.2736C22.4452 8.74552 21.6806 8.88889 20.9797 9.17563C20.2788 9.46237 19.6734 9.83672 19.1637 10.2987C18.6539 10.7607 18.2477 11.2943 17.945 11.8996C17.6424 12.505 17.491 13.1103 17.491 13.7157V16.2485H13.7634V21.2186H17.491V31.2545H22.509V21.2186H26.2366V16.2485H22.509V15.006C22.509 14.5918 22.6603 14.2732 22.963 14.0502C23.2656 13.8272 23.5285 13.7157 23.7515 13.7157H27.4791V8.74552Z" fill="#260101"/>
</svg>
