<svg width="40" height="40" viewBox="0 0 40 40" fill="none" xmlns="http://www.w3.org/2000/svg">
<path d="M26.7622 20.0239C26.7622 19.4823 26.6826 18.8929 26.5233 18.2557H28.5305V27.9092C28.5305 28.1641 28.4429 28.3712 28.2676 28.5305C28.0924 28.6898 27.8773 28.7694 27.6225 28.7694H11.8996C11.6448 28.7694 11.4377 28.6898 11.2784 28.5305C11.1191 28.3712 11.0394 28.1641 11.0394 27.9092V18.2557H12.9988C12.8395 18.8929 12.7599 19.4823 12.7599 20.0239C12.7599 20.9797 12.9431 21.8877 13.3094 22.7479C13.6758 23.6081 14.1776 24.3489 14.8148 24.9701C15.452 25.5914 16.2007 26.0852 17.0609 26.4516C17.9211 26.818 18.8292 27.0012 19.7849 27.0012C20.7407 27.0012 21.6487 26.818 22.509 26.4516C23.3692 26.0852 24.1099 25.5914 24.7312 24.9701C25.3524 24.3489 25.8463 23.6081 26.2127 22.7479C26.5791 21.8877 26.7622 20.9797 26.7622 20.0239ZM19.7849 24.3728C19.1796 24.3728 18.6061 24.2613 18.0645 24.0382C17.5229 23.8152 17.053 23.5046 16.6547 23.1063C16.2565 22.7081 15.9458 22.2461 15.7228 21.7204C15.4998 21.1947 15.3883 20.6292 15.3883 20.0239C15.3883 19.4186 15.4998 18.8451 15.7228 18.3035C15.9458 17.7618 16.2565 17.2919 16.6547 16.8937C17.053 16.4954 17.5229 16.1848 18.0645 15.9618C18.6061 15.7387 19.1796 15.6272 19.7849 15.6272C20.3903 15.6272 20.9558 15.7387 21.4815 15.9618C22.0072 16.1848 22.4691 16.4954 22.8674 16.8937C23.2656 17.2919 23.5763 17.7618 23.7993 18.3035C24.0223 18.8451 24.1338 19.4186 24.1338 20.0239C24.1338 20.6292 24.0223 21.1947 23.7993 21.7204C23.5763 22.2461 23.2656 22.7081 22.8674 23.1063C22.4691 23.5046 22.0072 23.8152 21.4815 24.0382C20.9558 24.2613 20.3903 24.3728 19.7849 24.3728ZM27.6225 11.2784C27.8773 11.2784 28.0924 11.358 28.2676 11.5173C28.4429 11.6766 28.5305 11.8837 28.5305 12.1386V14.767C28.5305 15.0219 28.4429 15.229 28.2676 15.3883C28.0924 15.5476 27.8773 15.6272 27.6225 15.6272H24.994C24.7391 15.6272 24.5321 15.5476 24.3728 15.3883C24.2135 15.229 24.1338 15.0219 24.1338 14.767V12.1386C24.1338 11.8837 24.2135 11.6766 24.3728 11.5173C24.5321 11.358 24.7391 11.2784 24.994 11.2784H27.6225ZM29.9642 0C31.3341 0 32.6324 0.262843 33.859 0.78853C35.0856 1.31422 36.1529 2.03106 37.0609 2.93907C37.9689 3.84707 38.6858 4.90641 39.2115 6.11708C39.7372 7.32776 40 8.61808 40 9.98805V29.9642C40 31.3341 39.7372 32.6324 39.2115 33.859C38.6858 35.0856 37.9689 36.1529 37.0609 37.0609C36.1529 37.9689 35.0856 38.6858 33.859 39.2115C32.6324 39.7372 31.3341 40 29.9642 40H9.98805C8.61808 40 7.32776 39.7372 6.11708 39.2115C4.90641 38.6858 3.84707 37.9689 2.93907 37.0609C2.03106 36.1529 1.31422 35.0856 0.78853 33.859C0.262843 32.6324 0 31.3341 0 29.9642V9.98805C0 8.61808 0.262843 7.32776 0.78853 6.11708C1.31422 4.90641 2.03106 3.84707 2.93907 2.93907C3.84707 2.03106 4.90641 1.31422 6.11708 0.78853C7.32776 0.262843 8.61808 0 9.98805 0H29.9642ZM31.1589 11.2784C31.1589 10.5456 30.904 9.92433 30.3943 9.41458C29.8845 8.90482 29.2632 8.64994 28.5305 8.64994H11.0394C10.3067 8.64994 9.68538 8.90482 9.17563 9.41458C8.66587 9.92433 8.41099 10.5456 8.41099 11.2784V28.7694C8.41099 29.5022 8.66587 30.1235 9.17563 30.6332C9.68538 31.143 10.3067 31.3979 11.0394 31.3979H28.5305C29.2632 31.3979 29.8845 31.143 30.3943 30.6332C30.904 30.1235 31.1589 29.5022 31.1589 28.7694V11.2784Z" fill="#260101"/>
</svg>
