<svg width="40" height="40" viewBox="0 0 60 60" fill="none" xmlns="http://www.w3.org/2000/svg">
<path d="M45.0179 0C47.0729 0 49.0084 0.394265 50.8244 1.1828C52.6404 1.97133 54.2294 3.0466 55.5914 4.4086C56.9534 5.77061 58.0287 7.35962 58.8172 9.17563C59.6057 10.9916 60 12.9271 60 14.9821V44.9462C60 47.0012 59.6057 48.9486 58.8172 50.7885C58.0287 52.6284 56.9534 54.2294 55.5914 55.5914C54.2294 56.9534 52.6404 58.0287 50.8244 58.8172C49.0084 59.6057 47.0729 60 45.0179 60H14.9821C12.9271 60 10.9916 59.6057 9.17563 58.8172C7.35962 58.0287 5.77061 56.9534 4.4086 55.5914C3.0466 54.2294 1.97133 52.6284 1.1828 50.7885C0.394265 48.9486 0 47.0012 0 44.9462V14.9821C0 12.9271 0.394265 10.9916 1.1828 9.17563C1.97133 7.35962 3.0466 5.77061 4.4086 4.4086C5.77061 3.0466 7.35962 1.97133 9.17563 1.1828C10.9916 0.394265 12.9271 0 14.9821 0H45.0179ZM20.6452 22.509H13.1183V46.8817H20.6452V22.509ZM16.9176 20.5735C17.9211 20.5735 18.7933 20.2151 19.5341 19.4982C20.2748 18.7814 20.6452 17.8973 20.6452 16.8459C20.6452 15.7945 20.2748 14.9104 19.5341 14.1935C18.7933 13.4767 17.9211 13.1183 16.9176 13.1183C15.8662 13.1183 14.9701 13.4767 14.2294 14.1935C13.4887 14.9104 13.1183 15.7945 13.1183 16.8459C13.1183 17.8973 13.4887 18.7814 14.2294 19.4982C14.9701 20.2151 15.8662 20.5735 16.9176 20.5735ZM46.8817 32.7599C46.8817 31.0394 46.4038 29.3548 45.448 27.7061C44.4922 26.0573 43.2497 24.8029 41.7204 23.9427C40.3345 23.178 38.7216 22.7718 36.8817 22.724C35.0418 22.6762 33.3811 22.9869 31.8996 23.6559V22.509H24.3728V46.8817H31.8996V31.9713L34.9821 30.466C35.3644 30.2748 35.8901 30.1792 36.5591 30.1792C37.2282 30.1792 37.73 30.2987 38.0645 30.5376C38.3513 30.681 38.638 30.9916 38.9247 31.4695C39.2115 31.9474 39.3548 32.3775 39.3548 32.7599V46.8817H46.8817V32.7599Z" fill="black"/>
</svg>
