<svg width="40" height="40" viewBox="0 0 40 40" fill="none" xmlns="http://www.w3.org/2000/svg">
<path d="M30.0119 0C31.3819 0 32.6722 0.262843 33.8829 0.78853C35.0936 1.31422 36.1529 2.03106 37.0609 2.93907C37.9689 3.84707 38.6858 4.90641 39.2115 6.11708C39.7372 7.32776 40 8.61808 40 9.98805V29.9642C40 31.3341 39.7372 32.6324 39.2115 33.859C38.6858 35.0856 37.9689 36.1529 37.0609 37.0609C36.1529 37.9689 35.0936 38.6858 33.8829 39.2115C32.6722 39.7372 31.3819 40 30.0119 40H9.98805C8.61808 40 7.32776 39.7372 6.11708 39.2115C4.90641 38.6858 3.84707 37.9689 2.93907 37.0609C2.03106 36.1529 1.31422 35.0856 0.78853 33.859C0.262843 32.6324 0 31.3341 0 29.9642V9.98805C0 8.61808 0.262843 7.32776 0.78853 6.11708C1.31422 4.90641 2.03106 3.84707 2.93907 2.93907C3.84707 2.03106 4.90641 1.31422 6.11708 0.78853C7.32776 0.262843 8.61808 0 9.98805 0H30.0119ZM29.534 15.0538C30.458 14.4166 31.2704 13.5882 31.9713 12.5687C31.5253 12.7599 31.0713 12.9192 30.6093 13.0466C30.1474 13.174 29.6774 13.2696 29.1995 13.3333C30.2509 12.6643 30.9518 11.7563 31.3023 10.6093C30.3465 11.2147 29.327 11.6129 28.2437 11.8041C27.2879 10.7845 26.0932 10.2748 24.6595 10.2748C23.9904 10.2748 23.3612 10.4022 22.7718 10.6571C22.1824 10.912 21.6726 11.2624 21.2425 11.7085C20.8124 12.1545 20.4699 12.6722 20.2151 13.2616C19.9602 13.8511 19.8327 14.4803 19.8327 15.1493C19.8327 15.3405 19.8407 15.5237 19.8566 15.6989C19.8726 15.8742 19.8965 16.0573 19.9283 16.2485C17.9211 16.1529 16.0573 15.6511 14.3369 14.7431C12.6165 13.8351 11.1509 12.6483 9.94026 11.1828C9.49423 11.9156 9.27121 12.728 9.27121 13.6201C9.27121 14.4484 9.47033 15.2131 9.86858 15.914C10.2668 16.6149 10.7845 17.1884 11.4217 17.6344C11.0394 17.6344 10.6651 17.5787 10.2987 17.4671C9.9323 17.3556 9.57388 17.2202 9.22342 17.0609V17.1087C9.22342 18.2875 9.59777 19.315 10.3465 20.1912C11.0952 21.0673 12.0271 21.6328 13.1422 21.8877C12.6961 21.9833 12.266 22.0311 11.8519 22.0311H11.3979L10.9438 21.9355C11.2624 22.9231 11.828 23.7276 12.6404 24.3489C13.4528 24.9701 14.4006 25.2967 15.4839 25.3286C14.6555 25.9658 13.7236 26.4755 12.6882 26.8578C11.6527 27.2401 10.5775 27.4313 9.46237 27.4313C9.23935 27.4313 9.03226 27.4233 8.8411 27.4074C8.64994 27.3915 8.45878 27.3676 8.26762 27.3357C9.35086 28.0366 10.5217 28.5783 11.7802 28.9606C13.0386 29.3429 14.3528 29.534 15.7228 29.534C17.953 29.534 19.9283 29.1119 21.6487 28.2676C23.3692 27.4233 24.8108 26.3401 25.9737 25.0179C27.1366 23.6957 28.0207 22.2143 28.626 20.5735C29.2314 18.9327 29.534 17.2999 29.534 15.675V15.0538Z" fill="#260101"/>
</svg>
